<?xml version="1.0" encoding="UTF-8"?>
<svg width="512" height="512" viewBox="0 0 512 512" fill="none" xmlns="http://www.w3.org/2000/svg">
    <defs>
        <linearGradient id="iconGradient" x1="0%" y1="0%" x2="100%" y2="100%">
            <stop offset="0%" style="stop-color:#0066FF;stop-opacity:1" />
            <stop offset="100%" style="stop-color:#9933FF;stop-opacity:1" />
        </linearGradient>
        <filter id="neonGlow" x="-20%" y="-20%" width="140%" height="140%">
            <feGaussianBlur stdDeviation="5" result="coloredBlur"/>
            <feMerge>
                <feMergeNode in="coloredBlur"/>
                <feMergeNode in="SourceGraphic"/>
            </feMerge>
        </filter>
    </defs>

    <!-- Rounded rectangle background -->
    <rect width="512" height="512" rx="128" fill="#1A1B1F"/>

    <!-- Cloud with music note and equalizer -->
    <g filter="url(#neonGlow)">
        <path d="M256 96C167.635 96 96 167.635 96 256C96 344.365 167.635 416 256 416C344.365 416 416 344.365 416 256C416 167.635 344.365 96 256 96Z" fill="url(#iconGradient)" opacity="0.9"/>

        <!-- Equalizer bars -->
        <g fill="white" opacity="0.8">
            <rect x="180" y="236" width="12" height="40" rx="6"/>
            <rect x="200" y="216" width="12" height="80" rx="6"/>
            <rect x="220" y="196" width="12" height="120" rx="6"/>
            <rect x="240" y="226" width="12" height="60" rx="6"/>
            <rect x="260" y="206" width="12" height="100" rx="6"/>
            <rect x="280" y="236" width="12" height="40" rx="6"/>
            <rect x="300" y="216" width="12" height="80" rx="6"/>
            <rect x="320" y="196" width="12" height="120" rx="6"/>
        </g>

        <!-- Music note -->
        <path d="M320 180C320 180 280 200 280 240C280 260 300 280 320 280C340 280 360 260 360 240C360 220 340 200 320 200V180Z" fill="white"/>
    </g>
</svg>